<svg xmlns="http://www.w3.org/2000/svg" width="50" height="20" xmlns:v="https://vecta.io/nano"><g transform="matrix(-1 0 0 1 51 -1031.36218)"><path d="M0 1029.362h52v24H0z" opacity="0" fill="#423d3e"/><rect width="50" height="20" x="1" y="1031.362" rx="11" fill="#d3cacb"/><circle cx="41" cy="1041.362" r="9" fill="#fff"/></g><path d="M37.003 7h.75.023a.78.78 0 0 1 .516.234l1.711 1.711 1.734-1.711c.199-.173.335-.229.516-.234h.75v.75c0 .215-.026.413-.187.563l-1.711 1.711 1.688 1.688a.76.76 0 0 1 .211.539V13h-.75a.76.76 0 0 1-.539-.211l-1.711-1.711-1.711 1.711a.76.76 0 0 1-.539.211h-.75v-.75c0-.199.07-.398.211-.539l1.711-1.687-1.711-1.711a.68.68 0 0 1-.211-.562V7z" opacity=".6" fill="#5b5455"/></svg>